<?xml version="1.0" encoding="utf-8" ?>
<svg baseProfile="full" height="200mm" version="1.1" viewBox="0,0,200,200" width="200mm"
    xmlns="http://www.w3.org/2000/svg" xmlns:ev="http://www.w3.org/2001/xml-events"
    xmlns:xlink="http://www.w3.org/1999/xlink">
    <defs />
    <rect fill="#1a1a1a" height="200" width="200" x="0" y="0" /><text alignment-baseline="middle" fill="#e1ed5e"
        style="dominant-baseline: central; font-size:9.0px; font-family:Arial;" text-anchor="middle" x="100.0"
        y="100.0">2024</text>
    <line stroke="#e1ed5e" stroke-width="0.3" x1="100.0" x2="100.0" y1="15.0" y2="10.0" />
    <path d="M 100.0 14.0 a86.0,86.0 0 0,1 42.35913384403234,11.155469271406648" fill="none" id="id121" stroke="none" />
    <text fill="#e1ed5e" style="font-size:6.75px; font-family:Arial;" text-anchor="middle">
        <textPath startOffset="22.145653131862478" xlink:href="#id121">January</textPath>
    </text>
    <line stroke="#e1ed5e" stroke-width="0.3" x1="143.13028292997686" x2="145.6673583964461" y1="26.7553504044142"
        y2="22.446841604673864" />
    <path d="M 143.63769802327073 25.89364864446614 a86.0,86.0 0 0,1 29.32050498858742,28.57503671076992" fill="none"
        id="id122" stroke="none" /><text fill="#e1ed5e" style="font-size:6.75px; font-family:Arial;"
        text-anchor="middle">
        <textPath startOffset="20.669276256404974" xlink:href="#id122">February</textPath>
    </text>
    <line stroke="#e1ed5e" stroke-width="0.3" x1="172.87174338648825" x2="177.1583165268699" y1="56.24261187166439"
        y2="53.66864786411523" />
    <path d="M 173.72905801456457 55.72781907015455 a86.0,86.0 0 0,1 12.242430191666344,42.057860355516425" fill="none"
        id="id123" stroke="none" /><text fill="#e1ed5e" style="font-size:6.75px; font-family:Arial;"
        text-anchor="middle">
        <textPath startOffset="22.145653131862474" xlink:href="#id123">March</textPath>
    </text>
    <line stroke="#e1ed5e" stroke-width="0.3" x1="184.99686870605535" x2="189.99668451229388" y1="99.2704041080226"
        y2="99.22748670261217" />
    <path d="M 185.99683186730306 99.26182062694052 a86.0,86.0 0 0,1 -10.086455211305974,41.156179273409016" fill="none"
        id="id124" stroke="none" /><text fill="#e1ed5e" style="font-size:6.75px; font-family:Arial;"
        text-anchor="middle">
        <textPath startOffset="21.40746469413373" xlink:href="#id124">April</textPath>
    </text>
    <line stroke="#e1ed5e" stroke-width="0.3" x1="174.33088141563837" x2="178.70328620479359" y1="141.23008692659167"
        y2="143.65538615756765" />
    <path d="M 175.20536237346943 141.71514677278685 a86.0,86.0 0 0,1 -30.301960400862466,31.63118572779886" fill="none"
        id="id125" stroke="none" /><text fill="#e1ed5e" style="font-size:6.75px; font-family:Arial;"
        text-anchor="middle">
        <textPath startOffset="22.145653131862474" xlink:href="#id125">May</textPath>
    </text>
    <line stroke="#e1ed5e" stroke-width="0.3" x1="143.1302829299769" x2="145.6673583964461" y1="173.24464959558577"
        y2="177.55315839532614" />
    <path d="M 143.63769802327073 174.10635135553383 a86.0,86.0 0 0,1 -40.685524379131806,11.842963189579606"
        fill="none" id="id126" stroke="none" /><text fill="#e1ed5e" style="font-size:6.75px; font-family:Arial;"
        text-anchor="middle">
        <textPath startOffset="21.407464694133747" xlink:href="#id126">June</textPath>
    </text>
    <line stroke="#e1ed5e" stroke-width="0.3" x1="101.45913802915013" x2="101.54496967792366" y1="184.9874750549273"
        y2="189.98673829345242" />
    <path d="M 101.47630435890484 185.9873277026323 a86.0,86.0 0 0,1 -42.54439059252881,-10.42667462771756" fill="none"
        id="id127" stroke="none" /><text fill="#e1ed5e" style="font-size:6.75px; font-family:Arial;"
        text-anchor="middle">
        <textPath startOffset="22.145653131862474" xlink:href="#id127">July</textPath>
    </text>
    <path
        d="M 98.19965949673042 120.92268563240118 l -4.282445205852161 49.76850468969955 a70.95241131306648,70.95241131306648 0 0,0 -1.212611971387883,-0.11483561443834635 l 5.13615674062506 -49.68765731975601"
        fill="#32ff2f" stroke="none" />
    <path
        d="M 97.12497278360702 120.80226474461374 l -8.625081649178929 62.40679423384121 a84.0,84.0 0 0,0 -1.426699577569258,-0.20967570680447034 l 9.695106332355873 -62.24953745373786"
        fill="#4dd2ff" stroke="none" />
    <line stroke="#e1ed5e" stroke-width="0.3" x1="58.13341422392154" x2="55.670673884152215" y1="173.97424548756322"
        y2="178.32567169271397" />
    <path d="M 57.64086615596767 174.84453072859336 a86.0,86.0 0 0,1 -31.369924170532244,-30.572349798747886"
        fill="none" id="id128" stroke="none" /><text fill="#e1ed5e" style="font-size:6.75px; font-family:Arial;"
        text-anchor="middle">
        <textPath startOffset="22.145653131862474" xlink:href="#id128">August</textPath>
    </text>
    <path
        d="M 89.03521579738668 117.91015095944536 l -30.34966110497139 49.57389054939103 a79.12634990595586,79.12634990595586 0 0,0 -1.1523655313894312,-0.7191613201731973 l 31.196190765150533 -49.045593432376286"
        fill="#42ffd5" stroke="none" />
    <line stroke="#e1ed5e" stroke-width="0.3" x1="26.387840678322732" x2="22.057713659400548" y1="142.50000000000003"
        y2="145.00000000000006" />
    <path d="M 25.521815274538298 143.00000000000003 a86.0,86.0 0 0,1 -11.493303480769221,-40.785679425670985"
        fill="none" id="id129" stroke="none" /><text fill="#e1ed5e" style="font-size:6.75px; font-family:Arial;"
        text-anchor="middle">
        <textPath startOffset="21.40746469413373" xlink:href="#id129">September</textPath>
    </text>
    <path
        d="M 81.81346652052679 110.50000000000001 l -36.39400598386876 21.012089151675504 a63.02417830335097,63.02417830335097 0 0,0 -0.5329043458866043,-0.941590917273438 l 36.74934369477674 -20.384241464302946"
        fill="#ceff1d" stroke="none" />
    <path
        d="M 81.63589988554817 110.18625677009913 l -25.79993078206914 14.310786695729442 a50.50313617584113,50.50313617584113 0 0,0 -0.414016654841968,-0.7617440132415461 l 26.041792786526436 -13.86578784901331"
        fill="#ff0000" stroke="none" />
    <path
        d="M 81.4637452351635 109.86951160357371 l -44.02200269562536 23.43923688625782 a70.87318465010787,70.87318465010787 0 0,0 -0.5625708574867365,-1.078803796978818 l 44.417881622087044 -22.680086846174497"
        fill="#33ff2f" stroke="none" />
    <path
        d="M 81.29705330413844 109.54985784667822 l -53.441021414483565 27.287366316588614 a81.0045259152923,81.0045259152923 0 0,0 -0.6217293579651864,-1.2438751959161665 l 53.90157068566049 -26.365959264508692"
        fill="#46fff8" stroke="none" />
    <line stroke="#e1ed5e" stroke-width="0.3" x1="15.003131293944662" x2="10.003315487706104" y1="100.72959589197737"
        y2="100.7725132973878" />
    <path d="M 14.003168132696942 100.73817937305945 a86.0,86.0 0 0,1 10.791469493833604,-42.453326145846276"
        fill="none" id="id130" stroke="none" /><text fill="#e1ed5e" style="font-size:6.75px; font-family:Arial;"
        text-anchor="middle">
        <textPath startOffset="22.145653131862435" xlink:href="#id130">October</textPath>
    </text>
    <line stroke="#e1ed5e" stroke-width="0.3" x1="26.387840678322718" x2="22.05771365940052" y1="57.5" y2="55.0" />
    <path d="M 25.521815274538284 57.0 a86.0,86.0 0 0,1 29.574782752854787,-30.346332500585742" fill="none" id="id131"
        stroke="none" /><text fill="#e1ed5e" style="font-size:6.75px; font-family:Arial;" text-anchor="middle">
        <textPath startOffset="21.40746469413373" xlink:href="#id131">November</textPath>
    </text>
    <line stroke="#e1ed5e" stroke-width="0.3" x1="56.869717070023135" x2="54.33264160355391" y1="26.7553504044142"
        y2="22.446841604673864" />
    <path d="M 56.362301976729285 25.89364864446614 a86.0,86.0 0 0,1 42.16139366436587,-11.88097634709845" fill="none"
        id="id132" stroke="none" /><text fill="#e1ed5e" style="font-size:6.75px; font-family:Arial;"
        text-anchor="middle">
        <textPath startOffset="22.145653131862474" xlink:href="#id132">December</textPath>
    </text>
</svg>