<?xml version="1.0" encoding="utf-8" ?>
<svg baseProfile="full" height="200mm" version="1.1" viewBox="0,0,200,200" width="200mm" xmlns="http://www.w3.org/2000/svg" xmlns:ev="http://www.w3.org/2001/xml-events" xmlns:xlink="http://www.w3.org/1999/xlink"><defs /><rect fill="#1a1a1a" height="200" width="200" x="0" y="0" /><text alignment-baseline="middle" fill="#e1ed5e" style="dominant-baseline: central; font-size:9.0px; font-family:Arial;" text-anchor="middle" x="100.0" y="100.0">2024</text><line stroke="#e1ed5e" stroke-width="0.3" x1="100.0" x2="100.0" y1="15.0" y2="10.0" /><path d="M 100.0 14.0 a86.0,86.0 0 0,1 42.35913384403234,11.155469271406648" fill="none" id="id121" stroke="none" /><text fill="#e1ed5e" style="font-size:6.75px; font-family:Arial;" text-anchor="middle"><textPath startOffset="22.145653131862478" xlink:href="#id121">January</textPath></text><line stroke="#e1ed5e" stroke-width="0.3" x1="143.13028292997686" x2="145.6673583964461" y1="26.7553504044142" y2="22.446841604673864" /><path d="M 143.63769802327073 25.89364864446614 a86.0,86.0 0 0,1 29.32050498858742,28.57503671076992" fill="none" id="id122" stroke="none" /><text fill="#e1ed5e" style="font-size:6.75px; font-family:Arial;" text-anchor="middle"><textPath startOffset="20.669276256404974" xlink:href="#id122">February</textPath></text><line stroke="#e1ed5e" stroke-width="0.3" x1="172.87174338648825" x2="177.1583165268699" y1="56.24261187166439" y2="53.66864786411523" /><path d="M 173.72905801456457 55.72781907015455 a86.0,86.0 0 0,1 12.242430191666344,42.057860355516425" fill="none" id="id123" stroke="none" /><text fill="#e1ed5e" style="font-size:6.75px; font-family:Arial;" text-anchor="middle"><textPath startOffset="22.145653131862474" xlink:href="#id123">March</textPath></text><line stroke="#e1ed5e" stroke-width="0.3" x1="184.99686870605535" x2="189.99668451229388" y1="99.2704041080226" y2="99.22748670261217" /><path d="M 185.99683186730306 99.26182062694052 a86.0,86.0 0 0,1 -10.086455211305974,41.156179273409016" fill="none" id="id124" stroke="none" /><text fill="#e1ed5e" style="font-size:6.75px; font-family:Arial;" text-anchor="middle"><textPath startOffset="21.40746469413373" xlink:href="#id124">April</textPath></text><line stroke="#e1ed5e" stroke-width="0.3" x1="174.33088141563837" x2="178.70328620479359" y1="141.23008692659167" y2="143.65538615756765" /><path d="M 175.20536237346943 141.71514677278685 a86.0,86.0 0 0,1 -30.301960400862466,31.63118572779886" fill="none" id="id125" stroke="none" /><text fill="#e1ed5e" style="font-size:6.75px; font-family:Arial;" text-anchor="middle"><textPath startOffset="22.145653131862474" xlink:href="#id125">May</textPath></text><line stroke="#e1ed5e" stroke-width="0.3" x1="143.1302829299769" x2="145.6673583964461" y1="173.24464959558577" y2="177.55315839532614" /><path d="M 143.63769802327073 174.10635135553383 a86.0,86.0 0 0,1 -40.685524379131806,11.842963189579606" fill="none" id="id126" stroke="none" /><text fill="#e1ed5e" style="font-size:6.75px; font-family:Arial;" text-anchor="middle"><textPath startOffset="21.407464694133747" xlink:href="#id126">June</textPath></text><line stroke="#e1ed5e" stroke-width="0.3" x1="101.45913802915013" x2="101.54496967792366" y1="184.9874750549273" y2="189.98673829345242" /><path d="M 101.47630435890484 185.9873277026323 a86.0,86.0 0 0,1 -42.54439059252881,-10.42667462771756" fill="none" id="id127" stroke="none" /><text fill="#e1ed5e" style="font-size:6.75px; font-family:Arial;" text-anchor="middle"><textPath startOffset="22.145653131862474" xlink:href="#id127">July</textPath></text><path d="M 98.19965949673042 120.92268563240118 l -3.5330593120658653 41.05950467299613 a62.211229441674824,62.211229441674824 0 0,0 -1.0632208289986709,-0.10068811793270277 l 4.237379704449552 -40.992804799558236" fill="red" stroke="none" /><path d="M 97.12497278360702 120.80226474461374 l -7.115776985614981 51.48621754756964 a72.9756181248927,72.9756181248927 0 0,0 -1.2394557565671418,-0.18215731321226183 l 7.998557847789809 -51.35647916105849" fill="red" stroke="none" /><line stroke="#e1ed5e" stroke-width="0.3" x1="58.13341422392154" x2="55.670673884152215" y1="173.97424548756322" y2="178.32567169271397" /><path d="M 57.64086615596767 174.84453072859336 a86.0,86.0 0 0,1 -31.369924170532244,-30.572349798747886" fill="none" id="id128" stroke="none" /><text fill="#e1ed5e" style="font-size:6.75px; font-family:Arial;" text-anchor="middle"><textPath startOffset="22.145653131862474" xlink:href="#id128">August</textPath></text><path d="M 89.03521579738668 117.91015095944536 l -25.03876818749051 40.89894609778375 a68.95480897945802,68.95480897945802 0 0,0 -1.0042311465891187,-0.6267145080860738 l 25.737163462869344 -40.46309579285613" fill="red" stroke="none" /><line stroke="#e1ed5e" stroke-width="0.3" x1="26.387840678322732" x2="22.057713659400548" y1="142.50000000000003" y2="145.00000000000006" /><path d="M 25.521815274538298 143.00000000000003 a86.0,86.0 0 0,1 -11.493303480769221,-40.785679425670985" fill="none" id="id129" stroke="none" /><text fill="#e1ed5e" style="font-size:6.75px; font-family:Arial;" text-anchor="middle"><textPath startOffset="21.40746469413373" xlink:href="#id129">September</textPath></text><path d="M 81.81346652052679 110.50000000000001 l -30.0254120167083 17.335179710375982 a55.670359420751936,55.670359420751936 0 0,0 -0.47072373287587294,-0.8317237321147385 l 30.318569114605552 -16.817199208162123" fill="red" stroke="none" /><path d="M 81.63589988554817 110.18625677009913 l -21.285196031388733 11.806539434349661 a45.34037681527343,45.34037681527343 0 0,0 -0.3716931770925053,-0.6838735811751815 l 21.48473455809657 -11.439411019699895" fill="red" stroke="none" /><path d="M 81.4637452351635 109.86951160357371 l -36.31858414604478 19.33760040538152 a62.14586666740107,62.14586666740107 0 0,0 -0.4932959295244962,-0.9459599883695871 l 36.64518814454423 -18.71129417390743" fill="red" stroke="none" /><path d="M 81.29705330413844 109.54985784667822 l -44.08936700386368 22.512344941350317 a70.50432261489621,70.50432261489621 0 0,0 -0.5411377541912697,-1.0826380021932156 l 44.46932467126668 -21.75217508299335" fill="red" stroke="none" /><path d="M 81.1358732173502 109.22738970284198 l -32.12743872621386 15.715140207476384 a56.76503810772843,56.76503810772843 0 0,0 -0.4206579691551701,-0.8790133672586313 l 32.39247595332894 -15.16131433815265" fill="red" stroke="none" /><path d="M 80.5471966667186 107.91128576633889 l -57.187886385521324 23.257815535241054 a82.7363777096988,82.7363777096988 0 0,0 -0.5237658895824079,-1.3202321909502055 l 57.578710950069855 -22.272682327077284" fill="red" stroke="none" /><path d="M 80.41425534168474 107.57618678355246 l -42.473979448712974 16.429847695762724 a66.5409576701638,66.5409576701638 0 0,0 -0.4029508612022521,-1.0688750327811887 l 42.74976099372966 -15.69830438278739" fill="red" stroke="none" /><path d="M 80.28708602549918 107.23885506374661 l -42.36928847687007 15.55858960450306 a66.13564352612673,66.13564352612673 0 0,0 -0.3822004977316727,-1.0690828149701161 l 42.630129144645686 -14.828971833152023" fill="red" stroke="none" /><path d="M 80.16572619554312 106.89939002012753 l -47.62086289544228 16.565008099104062 a71.41969928738067,71.41969928738067 0 0,0 -0.39285792641001155,-1.1614146531523528 l 47.89820624342466 -15.745091771477547" fill="red" stroke="none" /><path d="M 79.94057633289273 106.21446072829308 l -38.41146735527282 11.899970774677705 a61.21256182865465,61.21256182865465 0 0,0 -0.30234248451778134,-1.0063997993958242 l 38.610086159794236 -11.238833371691157" fill="red" stroke="none" /><path d="M 79.83685265289637 105.86919833188381 l -35.61642547237414 10.367422375661507 a58.09465204237058,58.09465204237058 0 0,0 -0.27050393710027926,-0.9599230439197767 l 35.78914790154899 -9.754491407838737" fill="red" stroke="none" /><path d="M 79.56144815229197 104.8234425847677 l -38.06953818559671 8.984307353822583 a60.11531050998518,60.11531050998518 0 0,0 -0.22840708727547995,-1.006403770471676 l 38.21815613442986 -8.329469249411881" fill="red" stroke="none" /><path d="M 79.48165901384964 104.47187691870673 l -46.65703503678534 10.168683628814051 a68.752288376231,68.752288376231 0 0,0 -0.24142624432983573,-1.1553119764025386 l 46.82471899193954 -9.366255201126103" fill="red" stroke="none" /><path d="M 79.407916724674 104.11899336999214 l -39.93372768337666 7.987863945946285 a61.72479069447788,61.72479069447788 0 0,0 -0.19891168782872082,-1.0407900027985788 l 40.06496566348754 -7.301171378114391" fill="red" stroke="none" /><path d="M 79.13060592940153 102.33845913500099 l -41.94673242072434 4.70021886025327 a63.20924564725277,63.20924564725277 0 0,0 -0.11157216710392016,-1.0793595066196269 l 42.02123698030993 -3.979454831350712" fill="red" stroke="none" /><path d="M 79.06263194458094 101.62068470465958 l -53.75261467175541 4.160792330888326 a74.91340999112367,74.91340999112367 0 0,0 -0.0882410008951315,-1.2830047867775878 l 53.81611963381561 -3.237444119956395" fill="red" stroke="none" /><path d="M 79.00696218219943 100.54070618675478 l -42.26844601195051 1.088685232767616 a63.282464022348805,63.282464022348805 0 0,0 -0.018648945581298176,-1.0862075867587198 l 42.28090638913047 -0.3629307300398439" fill="red" stroke="none" /><line stroke="#e1ed5e" stroke-width="0.3" x1="15.003131293944662" x2="10.003315487706104" y1="100.72959589197737" y2="100.7725132973878" /><path d="M 14.003168132696942 100.73817937305945 a86.0,86.0 0 0,1 10.791469493833604,-42.453326145846276" fill="none" id="id130" stroke="none" /><text fill="#e1ed5e" style="font-size:6.75px; font-family:Arial;" text-anchor="middle"><textPath startOffset="22.145653131862435" xlink:href="#id130">October</textPath></text><path d="M 79.00077361379809 100.18025310272382 l -62.99767915860572 0.5407593081714642 a84.0,84.0 0 0,0 0.0,-1.4420248217905405 l 62.99767915860572 0.540759308171441" fill="red" stroke="none" /><line stroke="#e1ed5e" stroke-width="0.3" x1="26.387840678322718" x2="22.05771365940052" y1="57.5" y2="55.0" /><path d="M 25.521815274538284 57.0 a86.0,86.0 0 0,1 29.574782752854787,-30.346332500585742" fill="none" id="id131" stroke="none" /><text fill="#e1ed5e" style="font-size:6.75px; font-family:Arial;" text-anchor="middle"><textPath startOffset="21.40746469413373" xlink:href="#id131">November</textPath></text><path d="M 81.81346652052679 89.5 l -30.292100282053624 -17.4891522521628 a55.9783045043256,55.9783045043256 0 0,0 0.48761445505722584,-0.8280759473893038 l 29.98741211686662 18.006579367845678" fill="red" stroke="none" /><path d="M 82.18462484594161 88.88188828441811 l -36.69507572492418 -22.90044120841908 a64.25458114463922,64.25458114463922 0 0,0 0.5920059373083911,-0.9307316630213689 l 36.296552095989895 23.526986546119122" fill="red" stroke="none" /><path d="M 84.10781606972428 86.27271002978789 l -24.218194647631627 -20.91909972484887 a53.00202626848408,53.00202626848408 0 0,0 0.6006617066512027,-0.6834427602204018 l 23.85552187702183 21.33175476288057" fill="red" stroke="none" /><line stroke="#e1ed5e" stroke-width="0.3" x1="56.869717070023135" x2="54.33264160355391" y1="26.7553504044142" y2="22.446841604673864" /><path d="M 56.362301976729285 25.89364864446614 a86.0,86.0 0 0,1 42.16139366436587,-11.88097634709845" fill="none" id="id132" stroke="none" /><text fill="#e1ed5e" style="font-size:6.75px; font-family:Arial;" text-anchor="middle"><textPath startOffset="22.145653131862474" xlink:href="#id132">December</textPath></text></svg>