<?xml version="1.0" encoding="utf-8" ?>
<svg baseProfile="full" height="200mm" version="1.1" viewBox="0,0,200,200" width="200mm" xmlns="http://www.w3.org/2000/svg" xmlns:ev="http://www.w3.org/2001/xml-events" xmlns:xlink="http://www.w3.org/1999/xlink"><defs /><rect fill="#1a1a1a" height="200" width="200" x="0" y="0" /><text alignment-baseline="middle" fill="#e1ed5e" style="dominant-baseline: central; font-size:9.0px; font-family:Arial;" text-anchor="middle" x="100.0" y="100.0">2014</text><line stroke="#e1ed5e" stroke-width="0.3" x1="100.0" x2="100.0" y1="15.0" y2="10.0" /><path d="M 100.0 14.0 a86.0,86.0 0 0,1 42.46469731375804,11.215312516191453" fill="none" id="id1" stroke="none" /><text fill="#e1ed5e" style="font-size:6.75px; font-family:Arial;" text-anchor="middle"><textPath startOffset="22.20632615414155" xlink:href="#id1">January</textPath></text><line stroke="#e1ed5e" stroke-width="0.3" x1="143.23703022742887" x2="145.7803849466894" y1="26.81831364943548" y2="22.513508569990506" /><path d="M 143.74570117128098 25.957352633546492 a86.0,86.0 0 0,1 28.547481713284135,27.462654790039103" fill="none" id="id2" stroke="none" /><text fill="#e1ed5e" style="font-size:6.75px; font-family:Arial;" text-anchor="middle"><textPath startOffset="19.985693538727396" xlink:href="#id2">February</textPath></text><line stroke="#e1ed5e" stroke-width="0.3" x1="172.23445277983987" x2="176.4835382374775" y1="55.19839476539836" y2="52.563006222186495" /><path d="M 173.08426987136738 54.67131705675599 a86.0,86.0 0 0,1 12.851231095245387,41.99856678651699" fill="none" id="id3" stroke="none" /><text fill="#e1ed5e" style="font-size:6.75px; font-family:Arial;" text-anchor="middle"><textPath startOffset="22.20632615414155" xlink:href="#id3">March</textPath></text><line stroke="#e1ed5e" stroke-width="0.3" x1="184.98032266829074" x2="189.97916517819016" y1="98.17113171792111" y2="98.06355123074" /><path d="M 185.9800911702706 98.14961562048488 a86.0,86.0 0 0,1 -9.607161424134198,41.387399972396054" fill="none" id="id4" stroke="none" /><text fill="#e1ed5e" style="font-size:6.75px; font-family:Arial;" text-anchor="middle"><textPath startOffset="21.466115282336823" xlink:href="#id4">April</textPath></text><line stroke="#e1ed5e" stroke-width="0.3" x1="174.80103733775053" x2="179.2010983576182" y1="140.37084112569926" y2="142.7455964860345" /><path d="M 175.68104954172406 140.8457921977663 a86.0,86.0 0 0,1 -30.038265399797805,32.042727171017184" fill="none" id="id5" stroke="none" /><text fill="#e1ed5e" style="font-size:6.75px; font-family:Arial;" text-anchor="middle"><textPath startOffset="22.206326154141568" xlink:href="#id5">May</textPath></text><line stroke="#e1ed5e" stroke-width="0.3" x1="143.8653032363475" x2="146.44561519142675" y1="172.8068346515853" y2="177.08958963109032" /><path d="M 144.38136562736335 173.6633856474863 a86.0,86.0 0 0,1 -40.68145358897372,12.25698825130547" fill="none" id="id6" stroke="none" /><text fill="#e1ed5e" style="font-size:6.75px; font-family:Arial;" text-anchor="middle"><textPath startOffset="21.466115282336833" xlink:href="#id6">June</textPath></text><line stroke="#e1ed5e" stroke-width="0.3" x1="102.19456741930631" x2="102.32365962044197" y1="184.97166512339345" y2="189.96999836594603" /><path d="M 102.22038585953345 185.97133177190398 a86.0,86.0 0 0,1 -42.740103519485714,-10.115201625700543" fill="none" id="id7" stroke="none" /><text fill="#e1ed5e" style="font-size:6.75px; font-family:Arial;" text-anchor="middle"><textPath startOffset="22.20632615414155" xlink:href="#id7">July</textPath></text><line stroke="#e1ed5e" stroke-width="0.3" x1="58.666819895761336" x2="56.23545636021788" y1="174.27360380694188" y2="178.64263932499728" /><path d="M 58.180547188652646 175.14741091055294 a86.0,86.0 0 0,1 -31.652253787137756,-30.449443065178592" fill="none" id="id8" stroke="none" /><text fill="#e1ed5e" style="font-size:6.75px; font-family:Arial;" text-anchor="middle"><textPath startOffset="22.20632615414155" xlink:href="#id8">August</textPath></text><path d="M 88.24862548938628 117.40417183066458 l -14.34503535976564 21.245468782637058 a46.63493677126847,46.63493677126847 0 0,0 -0.6614235644461491,-0.45493315880811286 l 14.70861580883468 -20.99539483446384" fill="#eaff1a" stroke="none" /><path d="M 87.95078237400918 117.19931262002967 l -20.79624289690654 29.685004786902482 a57.24476828213361,57.24476828213361 0 0,0 -0.8021700442407019,-0.5723270276301009 l 21.30414026899613 -29.322633497428164" fill="#68ff28" stroke="none" /><path d="M 87.65650970185807 116.9893568818739 l -19.677278338576205 27.083450149295345 a54.47698544975587,54.47698544975587 0 0,0 -0.7538967018089641,-0.5577147568736129 l 20.140560010803732 -26.740725443681963" fill="#88ff25" stroke="none" /><path d="M 87.07902340077011 116.55440617244103 l -20.354591868223306 26.078383369328087 a54.081588372984605,54.081588372984605 0 0,0 -0.7289232557579685,-0.579100719134223 l 20.800472616698634 -25.724148736188734" fill="#8dff24" stroke="none" /><path d="M 86.24171649860922 115.8653595955263 l -23.227896495498346 26.785240361669675 a56.453974062691515,56.453974062691515 0 0,0 -0.7286800656431279,-0.6429754357515834 l 23.685518914048064 -26.381441784145803" fill="#71ff27" stroke="none" /><path d="M 85.97065885151581 115.62618273729859 l -8.672950189073553 9.66011896721141 a33.982217200572045,33.982217200572045 0 0,0 -0.4318985276641848,-0.3945290648059744 l 8.837948266204593 -9.509397135818858" fill="#ff6108" stroke="none" /><line stroke="#e1ed5e" stroke-width="0.3" x1="26.63291911575756" x2="22.317208475507996" y1="142.92168965132927" y2="145.44649492493687" /><path d="M 25.769776987707644 143.4266507060508 a86.0,86.0 0 0,1 -11.730757126820373,-40.83630448921669" fill="none" id="id9" stroke="none" /><text fill="#e1ed5e" style="font-size:6.75px; font-family:Arial;" text-anchor="middle"><textPath startOffset="21.46611528233685" xlink:href="#id9">September</textPath></text><path d="M 81.87401531095188 110.60418214915194 l -28.66787387895215 16.77146713165892 a54.21338739857503,54.21338739857503 0 0,0 -0.4642937859738851,-0.8095353512851625 l 28.952319661078413 -16.27551193451545" fill="#8bff24" stroke="none" /><path d="M 81.69416730710424 110.29060199501025 l -33.72026082829078 18.955804369748325 a59.68305196894541,59.68305196894541 0 0,0 -0.49572058187215207,-0.899876847874432 l 34.041557819614454 -18.37255700347607" fill="#4cff2c" stroke="none" /><path d="M 81.51974371655577 109.97397251340807 l -5.973220475299899 3.223804687738017 a27.787656407864468,27.787656407864468 0 0,0 -0.2235549929722559,-0.4228817978047274 l 6.027827976497041 -3.1205078748471635" fill="#ff0000" stroke="none" /><path d="M 81.35079622478065 109.6543875284942 l -34.703902832052215 17.96564243332681 a60.078449045716674,60.078449045716674 0 0,0 -0.4675285742966197,-0.9224782315345803 l 35.0080100761351 -17.365609990089542" fill="#48ff2c" stroke="none" /><path d="M 81.02952815118164 109.00673069616217 l -35.837521485321375 17.014806347914874 a60.67154624246344,60.67154624246344 0 0,0 -0.43979758922281764,-0.9472848809556436 l 36.125093691384016 -16.395401399680402" fill="#41ff2d" stroke="none" /><path d="M 80.58989483394504 108.01547362559985 l -36.66804212696322 15.142201552058593 a60.67154624246344,60.67154624246344 0 0,0 -0.3903127279199437,-0.9687241813834504 l 36.92325746914055 -14.508778002832338" fill="#41ff2d" stroke="none" /><path d="M 80.45479744820244 107.68017299344265 l -33.05919495345981 12.990417244008889 a56.51987205979641,56.51987205979641 0 0,0 -0.34801632257022247,-0.9085608006186825 l 33.27790555562354 -12.419432876557048" fill="#70ff27" stroke="none" /><path d="M 80.32549172779594 107.34259656027581 l -36.55013141058272 13.640639220047394 a60.012551114511346,60.012551114511346 0 0,0 -0.35286162370600155,-0.9709236404018206 l 36.77951729529394 -13.009467782639456" fill="#49ff2c" stroke="none" /><path d="M 80.20201598880116 107.00284435728193 l -40.569299394666245 14.349970642673352 a64.03242627158797,64.03242627158797 0 0,0 -0.35860954507097376,-1.0422871993833753 l 40.810299770680444 -13.64951074020068" fill="#32ff46" stroke="none" /><path d="M 80.0844068197444 106.66101706037122 l -24.18619457033683 8.089372643853324 a46.50313622998774,46.50313622998774 0 0,0 -0.24736955566364918,-0.7613252090643712 l 24.32185637701673 -7.671848534811147" fill="#ecff1a" stroke="none" /><path d="M 79.86692584326677 105.97154293290107 l -46.87889287360715 13.904449924652646 a69.89748791872961,69.89748791872961 0 0,0 -0.3322039979739905,-1.156445698017639 l 47.111289508467245 -13.09544675113041" fill="#3aff90" stroke="none" /><path d="M 79.58551787078972 104.9243191809786 l -45.61227117008355 11.00245308155307 a67.92049930579397,67.92049930579397 0 0,0 -0.26437062737951045,-1.1389017435287838 l 45.79490236339362 -10.21568268067571" fill="#37ff77" stroke="none" /><path d="M 79.50377843672027 104.57218783832718 l -23.15472562861609 5.165232752393242 a44.72384767112803,44.72384767112803 0 0,0 -0.16114632980845636,-0.752822004489539 l 23.240205997148987 -4.765896928487539" fill="#fffa17" stroke="none" /><path d="M 79.4281124754447 104.21870165774334 l -59.32708035711688 12.166275552153149 a81.56171005272822,81.56171005272822 0 0,0 -0.27020255404702676,-1.3777570018128082 l 59.527712844139565 -11.143254823272386" fill="#4aebff" stroke="none" /><path d="M 79.29508885075956 103.50808413554451 l -45.93631346669902 7.783102827941293 a67.59100325750822,67.59100325750822 0 0,0 -0.1844856060800311,-1.1487920451656333 l 46.06348082714034 -6.991231553082445" fill="#37ff73" stroke="none" /><path d="M 79.23777060512086 103.15116336523772 l -50.624220155515324 7.683432492424672 a72.2039725140514,72.2039725140514 0 0,0 -0.17592308447870672,-1.2304056431026684 l 50.74897729101063 -6.8108813773416035" fill="#3dffac" stroke="none" /><path d="M 79.18660465613746 102.79330883721812 l -62.440186031587636 8.379926511654372 a84.0,84.0 0 0,0 -0.1799939630126075,-1.4347289828503655 l 62.5751815038471 -7.303879774516597" fill="#4dd2ff" stroke="none" /><path d="M 79.07016306316243 101.71520430193888 l -60.95048303024969 4.994904213263929 a82.15480724947498,82.15480724947498 0 0,0 -0.1033720347523495,-1.4104292847317326 l 61.02743162366638 -3.945001792035436" fill="#4ae5ff" stroke="none" /><line stroke="#e1ed5e" stroke-width="0.3" x1="15.007084014347285" x2="10.007500721073583" y1="101.09737516637583" y2="101.16192664675087" /><path d="M 14.007167355692545 101.11028546245083 a86.0,86.0 0 0,1 10.666146001902534,-42.60595125391555" fill="none" id="id10" stroke="none" /><text fill="#e1ed5e" style="font-size:6.75px; font-family:Arial;" text-anchor="middle"><textPath startOffset="22.20632615414155" xlink:href="#id10">October</textPath></text><path d="M 79.21141760316559 97.0276538004421 l -21.59316008258302 -3.0873845114943683 a42.81276015257748,42.81276015257748 0 0,0 0.11058761542257184,-0.7286342133083662 l 21.536816573721143 3.4586178371948257" fill="#ffe015" stroke="none" /><line stroke="#e1ed5e" stroke-width="0.3" x1="26.266209847984243" x2="21.928928074336255" y1="57.71137044288968" y2="55.22380399835378" /><path d="M 25.398753493254645 57.2138571539825 a86.0,86.0 0 0,1 29.58750427330803,-30.4925239686951" fill="none" id="id11" stroke="none" /><text fill="#e1ed5e" style="font-size:6.75px; font-family:Arial;" text-anchor="middle"><textPath startOffset="21.46611528233685" xlink:href="#id11">November</textPath></text><line stroke="#e1ed5e" stroke-width="0.3" x1="56.76296977257108" x2="54.21961505331056" y1="26.818313649435495" y2="22.513508569990535" /><path d="M 56.25429882871898 25.957352633546506 a86.0,86.0 0 0,1 42.26535254187918,-11.944610805530505" fill="none" id="id12" stroke="none" /><text fill="#e1ed5e" style="font-size:6.75px; font-family:Arial;" text-anchor="middle"><textPath startOffset="22.20632615414155" xlink:href="#id12">December</textPath></text></svg>