<?xml version="1.0" encoding="utf-8" ?>
<svg baseProfile="full" height="200mm" version="1.1" viewBox="0,0,200,200" width="200mm" xmlns="http://www.w3.org/2000/svg" xmlns:ev="http://www.w3.org/2001/xml-events" xmlns:xlink="http://www.w3.org/1999/xlink"><defs /><rect fill="#1a1a1a" height="200" width="200" x="0" y="0" /><text alignment-baseline="middle" fill="#e1ed5e" style="dominant-baseline: central; font-size:9.0px; font-family:Arial;" text-anchor="middle" x="100.0" y="100.0">2015</text><line stroke="#e1ed5e" stroke-width="0.3" x1="100.0" x2="100.0" y1="15.0" y2="10.0" /><path d="M 100.0 14.0 a86.0,86.0 0 0,1 42.46469731375804,11.215312516191453" fill="none" id="id13" stroke="none" /><text fill="#e1ed5e" style="font-size:6.75px; font-family:Arial;" text-anchor="middle"><textPath startOffset="22.20632615414155" xlink:href="#id13">January</textPath></text><line stroke="#e1ed5e" stroke-width="0.3" x1="143.23703022742887" x2="145.7803849466894" y1="26.81831364943548" y2="22.513508569990506" /><path d="M 143.74570117128098 25.957352633546492 a86.0,86.0 0 0,1 28.547481713284135,27.462654790039103" fill="none" id="id14" stroke="none" /><text fill="#e1ed5e" style="font-size:6.75px; font-family:Arial;" text-anchor="middle"><textPath startOffset="19.985693538727396" xlink:href="#id14">February</textPath></text><line stroke="#e1ed5e" stroke-width="0.3" x1="172.23445277983987" x2="176.4835382374775" y1="55.19839476539836" y2="52.563006222186495" /><path d="M 173.08426987136738 54.67131705675599 a86.0,86.0 0 0,1 12.851231095245387,41.99856678651699" fill="none" id="id15" stroke="none" /><text fill="#e1ed5e" style="font-size:6.75px; font-family:Arial;" text-anchor="middle"><textPath startOffset="22.20632615414155" xlink:href="#id15">March</textPath></text><line stroke="#e1ed5e" stroke-width="0.3" x1="184.98032266829074" x2="189.97916517819016" y1="98.17113171792111" y2="98.06355123074" /><path d="M 185.9800911702706 98.14961562048488 a86.0,86.0 0 0,1 -9.607161424134198,41.387399972396054" fill="none" id="id16" stroke="none" /><text fill="#e1ed5e" style="font-size:6.75px; font-family:Arial;" text-anchor="middle"><textPath startOffset="21.466115282336823" xlink:href="#id16">April</textPath></text><path d="M 120.99824983174949 100.27111621757518 l 20.83346571308526 0.26898862849863475 a41.835202146860986,41.835202146860986 0 0,0 -0.015494837136110775,0.7199841959216577 l -20.82574881326414 -0.6275626402104073" fill="red" stroke="none" /><path d="M 120.9764740272857 100.99374915477107 l 27.47871051011716 1.3017891046944996 a48.50952900672646,48.50952900672646 0 0,0 -0.04669307609300895,0.8337362402749894 l -27.45223108313662 -1.7745970613049125" fill="red" stroke="none" /><path d="M 120.92983693683757 101.71520430193887 l 12.705724649495503 1.0412366634213384 a33.74831803251121,33.74831803251121 0 0,0 -0.05243107146573032,0.5785725046136149 l -12.685918981752698 -1.2597905565835241" fill="red" stroke="none" /><line stroke="#e1ed5e" stroke-width="0.3" x1="174.80103733775053" x2="179.2010983576182" y1="140.37084112569926" y2="142.7455964860345" /><path d="M 175.68104954172406 140.8457921977663 a86.0,86.0 0 0,1 -30.038265399797805,32.042727171017184" fill="none" id="id17" stroke="none" /><text fill="#e1ed5e" style="font-size:6.75px; font-family:Arial;" text-anchor="middle"><textPath startOffset="22.206326154141568" xlink:href="#id17">May</textPath></text><line stroke="#e1ed5e" stroke-width="0.3" x1="143.8653032363475" x2="146.44561519142675" y1="172.8068346515853" y2="177.08958963109032" /><path d="M 144.38136562736335 173.6633856474863 a86.0,86.0 0 0,1 -40.68145358897372,12.25698825130547" fill="none" id="id18" stroke="none" /><text fill="#e1ed5e" style="font-size:6.75px; font-family:Arial;" text-anchor="middle"><textPath startOffset="21.466115282336833" xlink:href="#id18">June</textPath></text><line stroke="#e1ed5e" stroke-width="0.3" x1="102.19456741930631" x2="102.32365962044197" y1="184.97166512339345" y2="189.96999836594603" /><path d="M 102.22038585953345 185.97133177190398 a86.0,86.0 0 0,1 -42.740103519485714,-10.115201625700543" fill="none" id="id19" stroke="none" /><text fill="#e1ed5e" style="font-size:6.75px; font-family:Arial;" text-anchor="middle"><textPath startOffset="22.20632615414155" xlink:href="#id19">July</textPath></text><line stroke="#e1ed5e" stroke-width="0.3" x1="58.666819895761336" x2="56.23545636021788" y1="174.27360380694188" y2="178.64263932499728" /><path d="M 58.180547188652646 175.14741091055294 a86.0,86.0 0 0,1 -31.652253787137756,-30.449443065178592" fill="none" id="id20" stroke="none" /><text fill="#e1ed5e" style="font-size:6.75px; font-family:Arial;" text-anchor="middle"><textPath startOffset="22.20632615414155" xlink:href="#id20">August</textPath></text><line stroke="#e1ed5e" stroke-width="0.3" x1="26.63291911575756" x2="22.317208475507996" y1="142.92168965132927" y2="145.44649492493687" /><path d="M 25.769776987707644 143.4266507060508 a86.0,86.0 0 0,1 -11.730757126820373,-40.83630448921669" fill="none" id="id21" stroke="none" /><text fill="#e1ed5e" style="font-size:6.75px; font-family:Arial;" text-anchor="middle"><textPath startOffset="21.46611528233685" xlink:href="#id21">September</textPath></text><path d="M 80.0844068197444 106.66101706037122 l -18.218748918260733 6.093486458814931 a40.210762331838566,40.210762331838566 0 0,0 -0.2138977973814419,-0.6583097296389123 l 18.320938966658424 -5.778977829198214" fill="red" stroke="none" /><path d="M 79.97269907076064 106.31721596034903 l -22.126575185835634 6.97939050327799 a44.2012331838565,44.2012331838565 0 0,0 -0.2226336710983635,-0.7275797186474554 l 22.243435629440125 -6.597483812078487" fill="red" stroke="none" /><path d="M 79.76711848015287 105.62410040840567 l -23.136254652739982 6.431146206921285 a45.01345291479821,45.01345291479821 0 0,0 -0.2010856480207745,-0.7483145019824772 l 23.24352837710253 -6.031940771763269" fill="red" stroke="none" /><path d="M 79.58551787078972 104.9243191809786 l -25.952940285341327 6.260289182992977 a47.69730941704036,47.69730941704036 0 0,0 -0.1856548132563848,-0.799796076470615 l 26.056855664528268 -5.8126244491737875" fill="red" stroke="none" /><path d="M 79.50377843672027 104.57218783832718 l -27.918061363903018 6.227812294261893 a49.60426185538117,49.60426185538117 0 0,0 -0.17873115031676057,-0.8349724316161494 l 28.02112655294422 -5.746326043229579" fill="red" stroke="none" /><path d="M 79.4281124754447 104.21870165774334 l -45.491085361194294 9.328911457285583 a67.4377802690583,67.4377802690583 0 0,0 -0.22341194729955544,-1.1391727060693329 l 45.64492724146952 -8.544475024148296" fill="red" stroke="none" /><path d="M 79.29508885075956 103.50808413554451 l -34.22577521250563 5.798957463969035 a55.71356502242153,55.71356502242153 0 0,0 -0.15206684787444555,-0.9469204068733279 l 34.32052381474137 -5.208957827402493" fill="red" stroke="none" /><path d="M 79.1416061653843 102.43462659150553 l -26.692664307414596 3.1156123926048935 a47.87387892376682,47.87387892376682 0 0,0 -0.08849303800180605,-0.8193356271830669 l 26.742339646917454 -2.6556804435370447" fill="red" stroke="none" /><path d="M 79.04373962182676 101.35467743843564 l -26.007376949145485 1.6811972246056668 a47.06165919282511,47.06165919282511 0 0,0 -0.04529942217020658,-0.8088516132796643 l 26.03246272220322 -1.233273894990565" fill="red" stroke="none" /><path d="M 79.0235259727143 100.99374915477108 l -34.357206898951134 1.6276541649333474 a55.3957399103139,55.3957399103139 0 0,0 -0.03692486704161925,-0.9528667463857233 l 34.38013389884396 -1.0360101715336272" fill="red" stroke="none" /><line stroke="#e1ed5e" stroke-width="0.3" x1="15.007084014347285" x2="10.007500721073583" y1="101.09737516637583" y2="101.16192664675087" /><path d="M 14.007167355692545 101.11028546245083 a86.0,86.0 0 0,1 10.666146001902534,-42.60595125391555" fill="none" id="id22" stroke="none" /><text fill="#e1ed5e" style="font-size:6.75px; font-family:Arial;" text-anchor="middle"><textPath startOffset="22.20632615414155" xlink:href="#id22">October</textPath></text><path d="M 79.01574976396665 99.18683210126434 l -26.641999318730686 -1.0324132795046277 a47.66199551569507,47.66199551569507 0 0,0 0.03882498893641443,-0.8195341531857829 l 26.620280721560775 1.4908585393134197" fill="red" stroke="none" /><path d="M 79.03285615573316 98.82574320788736 l -25.809331772427132 -1.4454416566588386 a46.84977578475336,46.84977578475336 0 0,0 0.05202424204172396,-0.8047919979108814 l 25.780626939380994 1.889492718822732" fill="red" stroke="none" /><path d="M 79.05617556472873 98.46500227214037 l -33.56412223118865 -2.4599543183580104 a54.65414798206278,54.65414798206278 0 0,0 0.07684247288457122,-0.9376728040382771 l 33.51680527448458 3.037341039604066" fill="red" stroke="none" /><path d="M 79.08570108090925 98.10471618934814 l -62.742896757272284 -5.685851431955564 a84.0,84.0 0 0,0 0.1428914972710853,-1.4388978771822776 l 62.635728134318974 6.7650248398422725" fill="red" stroke="none" /><path d="M 79.12142395522702 97.74499172005258 l -32.33604574647297 -3.492481994111398 a53.524103139013455,53.524103139013455 0 0,0 0.10681791754074059,-0.9151506848861287 l 32.27113747592864 4.048576417322388" fill="red" stroke="none" /><path d="M 79.16333360222342 97.38593545837743 l -35.284511876503956 -4.4266193835435885 a56.56109865470852,56.56109865470852 0 0,0 0.12950875814299792,-0.9649906762215857 l 35.20308711930312 5.033328401829834" fill="red" stroke="none" /><path d="M 80.803312248108 91.48605970444005 l -18.52953828966257 -8.218052235960887 a41.270179372197305,41.270179372197305 0 0,0 0.2936032941291979,-0.6469159400222506 l 18.385332678570023 8.535790184825208" fill="red" stroke="none" /><path d="M 80.95270993114464 91.15688171328213 l -12.45974636230617 -5.7847079823989676 a34.73710762331839,34.73710762331839 0 0,0 0.25646209079203547,-0.5401745691955118 l 12.358326077672382 5.9983249672350105" fill="red" stroke="none" /><path d="M 81.10775173730289 90.83032412892265 l -24.621343728010526 -11.95039035888723 a48.368273542600896,48.368273542600896 0 0,0 0.36999423025472356,-0.7458857908395529 l 24.41198948480239 12.372435738225745" fill="red" stroke="none" /><path d="M 81.26839172434947 90.50648371742162 l -28.380906484912202 -14.383954322763094 a52.81782511210763,52.81782511210763 0 0,0 0.4179916330776729,-0.8074267910414096 l 28.129105418674417 14.87035383606484" fill="red" stroke="none" /><path d="M 81.43458229118936 90.18545643968196 l -28.222765037160567 -14.91986666792743 a52.9237668161435,52.9237668161435 0 0,0 0.43269438672295446,-0.8017169837091943 l 27.961762551219138 15.403464634969096" fill="red" stroke="none" /><line stroke="#e1ed5e" stroke-width="0.3" x1="26.266209847984243" x2="21.928928074336255" y1="57.71137044288968" y2="55.22380399835378" /><path d="M 25.398753493254645 57.2138571539825 a86.0,86.0 0 0,1 29.58750427330803,-30.4925239686951" fill="none" id="id23" stroke="none" /><text fill="#e1ed5e" style="font-size:6.75px; font-family:Arial;" text-anchor="middle"><textPath startOffset="21.46611528233685" xlink:href="#id23">November</textPath></text><path d="M 82.15384107792192 88.93136811851018 l -28.29976658663615 -17.55221950265398 a54.301008968609864,54.301008968609864 0 0,0 0.4994979251779003,-0.7900857629452488 l 27.993441065212288 18.036752913313443" fill="red" stroke="none" /><path d="M 82.34701348167596 88.62581576622439 l -17.989422360040983 -11.590956803253391 a42.40022421524664,42.40022421524664 0 0,0 0.40058795932778657,-0.6101229448163874 l 17.787237765355275 11.898897812047448" fill="red" stroke="none" /><path d="M 82.54541684631803 88.32363383020207 l -30.23243382560385 -20.224199251499783 a57.37331838565022,57.37331838565022 0 0,0 0.5561811403198204,-0.8161271942713032 l 29.87982821961529 20.7416044690415" fill="red" stroke="none" /><path d="M 82.7489923806493 88.02491185347247 l -31.591391195301995 -21.92971579299631 a59.45683856502242,59.45683856502242 0 0,0 0.5908519940418223,-0.835718243735509 l 31.209226581456292 22.470260537063602" fill="red" stroke="none" /><path d="M 82.95767976084542 87.72973835380427 l -31.209226581456292 -22.470260537063602 a59.45683856502242,59.45683856502242 0 0,0 0.6051499687184069,-0.8254238772506941 l 30.817814000224253 23.0041468579858" fill="red" stroke="none" /><path d="M 83.17141714833178 87.43820079747577 l -31.751687151746196 -23.7012422173187 a60.62219730941704,60.62219730941704 0 0,0 0.6314063384786095,-0.8308567288187854 l 31.33900487304348 24.244283722018515" fill="red" stroke="none" /><path d="M 83.39014120810768 87.1503855733568 l -25.585141233251186 -19.793015944179107 a53.347533632286996,53.347533632286996 0 0,0 0.5681408670112799,-0.7214812054959633 l 25.240646285645933 20.230489543628117" fill="red" stroke="none" /><path d="M 84.07557802195018 86.31012108654704 l -18.02208967134673 -15.4931981649448 a44.76625560538116,44.76625560538116 0 0,0 0.507368241487366,-0.5800096074889054 l 17.75272956628152 15.801123328636649" fill="red" stroke="none" /><path d="M 84.31358615837235 86.03803664274999 l -26.48401260705297 -23.572552484325705 a56.455156950672645,56.455156950672645 0 0,0 0.6523429930523813,-0.7203334261520231 l 26.074325973384546 24.024938697747285" fill="red" stroke="none" /><line stroke="#e1ed5e" stroke-width="0.3" x1="56.76296977257108" x2="54.21961505331056" y1="26.818313649435495" y2="22.513508569990535" /><path d="M 56.25429882871898 25.957352633546506 a86.0,86.0 0 0,1 42.26535254187918,-11.944610805530505" fill="none" id="id24" stroke="none" /><text fill="#e1ed5e" style="font-size:6.75px; font-family:Arial;" text-anchor="middle"><textPath startOffset="22.20632615414155" xlink:href="#id24">December</textPath></text><path d="M 89.3179101791058 81.91981866633112 l -13.256808779966235 -22.43807257440745 a47.06165919282511,47.06165919282511 0 0,0 0.7010019414818613,-0.4060655710507799 l 12.868610106019052 22.662942302848275" fill="red" stroke="none" /></svg>